HIERARCHY
ROOT Hips
{
  OFFSET 0 89.5177 0.535
  CHANNELS 6 Xposition Yposition Zposition Zrotation Xrotation Yrotation
  JOINT Spine
  {
    OFFSET 12.0259 -0.162855 1.69034e-005
    CHANNELS 3 Zrotation Xrotation Yrotation
    JOINT Spine1
    {
      OFFSET 15.3169 -0.0121922 0
      CHANNELS 3 Zrotation Xrotation Yrotation
      JOINT Spine2
      {
        OFFSET 15.3176 -0.0121908 0
        CHANNELS 3 Zrotation Xrotation Yrotation
        JOINT Neck
        {
          OFFSET 19.9142 1.56338 0
          CHANNELS 3 Zrotation Xrotation Yrotation
          JOINT Head
          {
            OFFSET 6.92651 0 0
            CHANNELS 3 Zrotation Xrotation Yrotation
            End Site
            {
              OFFSET 20.7666 0 0
            }
          }
          JOINT LeftShoulder
          {
            OFFSET -6.20654 0.708824 7.28219
            CHANNELS 3 Zrotation Xrotation Yrotation
            JOINT LeftArm
            {
              OFFSET 14.108 0 -1.52588e-005
              CHANNELS 3 Zrotation Xrotation Yrotation
              JOINT LeftForeArm
              {
                OFFSET 28.5802 0 0
                CHANNELS 3 Zrotation Xrotation Yrotation
                JOINT LeftHand
                {
                  OFFSET 27.092 0 0
                  CHANNELS 3 Zrotation Xrotation Yrotation
                  End Site
                  {
                    OFFSET 9.55928 -0.186424 0.145352
                  }
                }
              }
            }
          }
          JOINT RightShoulder
          {
            OFFSET -6.20654 0.708866 -7.28218
            CHANNELS 3 Zrotation Xrotation Yrotation
            JOINT RightArm
            {
              OFFSET 14.108 0 1.52588e-005
              CHANNELS 3 Zrotation Xrotation Yrotation
              JOINT RightForeArm
              {
                OFFSET 28.5802 0 0
                CHANNELS 3 Zrotation Xrotation Yrotation
                JOINT RightHand
                {
                  OFFSET 27.092 0 0
                  CHANNELS 3 Zrotation Xrotation Yrotation
                  End Site
                  {
                    OFFSET 9.55929 -0.186417 -0.145354
                  }
                }
              }
            }
          }
        }
      }
    }
  }
  JOINT LeftUpLeg
  {
    OFFSET 0.005 -0.535 8.837
    CHANNELS 3 Zrotation Xrotation Yrotation
    JOINT LeftLeg
    {
      OFFSET 39.9035 0 0
      CHANNELS 3 Zrotation Xrotation Yrotation
      JOINT LeftFoot
      {
        OFFSET 39.6689 0 0
        CHANNELS 3 Zrotation Xrotation Yrotation
        JOINT LeftToe
        {
          OFFSET 10.1624 13.6296 0
          CHANNELS 3 Zrotation Xrotation Yrotation
          End Site
          {
            OFFSET 8.38147 0 0
          }
        }
      }
    }
  }
  JOINT RightUpLeg
  {
    OFFSET 0.005 -0.535 -8.837
    CHANNELS 3 Zrotation Xrotation Yrotation
    JOINT RightLeg
    {
      OFFSET 39.9035 0 0
      CHANNELS 3 Zrotation Xrotation Yrotation
      JOINT RightFoot
      {
        OFFSET 39.6689 0 0
        CHANNELS 3 Zrotation Xrotation Yrotation
        JOINT RightToe
        {
          OFFSET 10.1624 13.6296 0
          CHANNELS 3 Zrotation Xrotation Yrotation
          End Site
          {
            OFFSET 8.38147 0 0
          }
        }
      }
    }
  }
}
MOTION
Frames:	14
Frame Time:	0.0333333
426.076 88.2177 7.39499 166.73 -85.5263 76.5894 -0.926112 -0.934658 0.585942 -1.84298 -1.87815 1.15711 -1.84299 -1.87815 1.1571 -8.30753e-012 -9.0191e-006 -5.27751e-005 -16.4419 25.0206 5.47844 -179.41 -8.54045 -86.0318 29.5656 -72.7424 35.021 -0.0589977 1.59028e-015 -9.93923e-016 -46.4724 -14.3141 -38.2524 179.529 5.86962 94.6007 60.9122 59.6154 -60.2591 -22.7209 1.59028e-015 1.59028e-015 -41.9483 30.2025 44.2519 -4.48639 5.17892 -176.138 -15.3251 -1.59028e-015 -9.93923e-016 16.2575 10.4279 -5.99968 90 -1.21134e-016 1.59028e-015 -0.0524261 -7.86212 177.834 -8.88223 7.95139e-016 -5.96354e-016 13.4626 -6.56157 2.86722 90 -6.70921e-022 2.48481e-017 
426.007 88.2094 7.39493 165.352 -85.5361 75.2834 -0.923321 -0.94342 0.589785 -1.83725 -1.89571 1.16471 -1.83725 -1.89571 1.1647 -8.30758e-012 -9.0191e-006 -5.27751e-005 -16.2485 27.5372 5.78561 -179.353 -8.41462 -85.5863 30.3473 -71.9522 36.0049 -7.85632e-006 -1.59028e-015 -1.49089e-016 -46.1495 -14.6222 -38.6143 179.547 5.92067 94.3876 60.2029 59.2092 -59.9262 -22.9827 -1.59028e-015 -2.38542e-015 -41.3089 30.3136 43.5687 -4.50307 5.17027 -176.242 -15.4303 0 -1.19271e-015 16.3401 10.5078 -6.01263 90 -2.01891e-016 7.95139e-016 -0.155432 -7.94927 177.691 -9.15545 7.95139e-016 1.19271e-015 13.614 -6.55341 2.92271 90 -9.39585e-021 -1.2424e-017 
425.942 88.2005 7.38893 163.377 -85.5395 73.4095 -0.923353 -0.941567 0.561544 -1.8257 -1.89149 1.10835 -1.8257 -1.89149 1.10834 -8.30738e-012 -9.0191e-006 -5.27751e-005 -15.9137 29.1896 5.75522 -179.291 -8.4482 -85.1834 30.1189 -71.4617 36.3375 -2.79623e-006 -4.77083e-015 -5.46658e-016 -45.76 -14.3018 -38.0887 179.548 5.89183 94.3996 60.624 58.9158 -60.4495 -22.1357 -1.59028e-015 -1.59028e-015 -40.394 30.4757 42.8343 -4.51522 5.14338 -176.371 -15.5437 -7.95139e-016 9.93923e-016 16.4542 10.6138 -6.05193 90 -6.74004e-016 7.95139e-016 -0.254111 -7.98539 177.525 -9.46376 7.95139e-016 1.98785e-016 13.7951 -6.46522 2.96618 90 5.03783e-021 -0 
425.905 88.1968 7.3817 160.972 -85.4795 71.0883 -0.924028 -0.927809 0.522999 -1.82361 -1.86336 1.03148 -1.82361 -1.86336 1.03147 -8.30748e-012 -9.0191e-006 -5.27751e-005 -15.6603 30.2929 5.68396 -179.249 -8.52228 -84.9479 30.2457 -71.7577 37.0871 -6.2415e-006 -1.59028e-015 2.73329e-016 -45.505 -13.65 -37.1613 179.544 5.63952 94.6281 62.2552 59 -61.6467 -20.1463 0 -0 -38.1331 31.0675 41.5775 -4.56885 5.06509 -176.465 -15.6284 1.59028e-015 3.97569e-016 16.5487 10.7211 -6.11848 90 1.09642e-015 -0 -0.292346 -7.99252 177.419 -9.60232 -7.95139e-016 -7.95139e-016 13.8996 -6.28491 2.97655 90 -2.28156e-020 -0 
425.891 88.1962 7.36344 158.624 -85.375 68.7916 -0.92451 -0.913816 0.493347 -1.84224 -1.83498 0.972244 -1.84224 -1.83498 0.972235 -8.30748e-012 -9.0191e-006 -5.27751e-005 -15.438 31.1242 5.47067 -179.23 -8.6396 -84.8882 29.6969 -72.0939 37.0947 -0.225914 -1.59028e-015 8.44835e-016 -45.7945 -13.1772 -36.6643 179.549 5.33185 94.8391 63.8982 59.3233 -62.5818 -17.8738 -6.36111e-015 3.18055e-015 -35.8002 32.0393 40.7851 -4.62802 4.9298 -176.52 -15.6515 7.95139e-016 -7.95139e-016 16.5605 10.7856 -6.18443 90 -9.31803e-017 2.38542e-015 -0.281707 -8.08162 177.37 -9.59324 0 7.95139e-016 13.936 -6.17165 2.97794 90 1.32946e-020 -0 
425.9 88.1966 7.34143 156.411 -85.283 66.5846 -0.924198 -0.903183 0.483834 -1.84108 -1.81356 0.953394 -1.84108 -1.81356 0.953385 -8.30758e-012 -9.0191e-006 -5.27751e-005 -15.2514 31.6692 4.95941 -179.207 -8.8188 -84.8405 29.027 -72.8657 36.8611 -0.661246 -3.18055e-015 2.98177e-016 -46.2094 -12.7371 -36.2435 179.555 5.11966 94.9718 65.7789 59.5147 -63.8031 -16.7868 -6.36111e-015 3.18055e-015 -33.4241 33.0612 39.9897 -4.66304 4.78418 -176.519 -15.6675 1.59028e-015 -3.97569e-016 16.571 10.8232 -6.22089 90 -5.90142e-016 -7.95139e-016 -0.181901 -8.17093 177.394 -9.45833 -7.95139e-016 -3.97569e-016 13.9099 -6.06474 2.96178 90 -1.27816e-020 -0 
425.935 88.1964 7.3226 155.093 -85.1992 65.2268 -0.917088 -0.891152 0.483836 -1.82695 -1.78944 0.9537 -1.82695 -1.78944 0.95369 -8.30743e-012 -9.0191e-006 -5.27751e-005 -15.1642 32.0648 4.64702 -179.18 -9.10617 -84.8329 27.4598 -73.4858 35.6955 -1.11009 0 1.39149e-015 -47.1974 -12.6044 -36.4137 179.574 5.10091 94.7794 65.9762 59.4171 -63.6587 -16.9153 1.59028e-015 3.18055e-015 -30.6718 33.796 38.5351 -4.7215 4.68398 -176.456 -15.7007 -1.59028e-015 -1.59028e-015 16.5968 10.8553 -6.23455 90 1.80149e-016 1.59028e-015 -0.0824474 -8.28808 177.48 -9.27362 7.95139e-016 3.97569e-016 13.8454 -6.04647 2.93603 90 -9.3355e-021 -0 
425.973 88.1955 7.30094 154.727 -85.1666 64.815 -0.910971 -0.880075 0.492236 -1.81467 -1.76737 0.970768 -1.81467 -1.76737 0.970758 -8.30743e-012 -9.0191e-006 -5.27751e-005 -15.2115 32.3891 4.55994 -179.149 -9.36123 -84.7816 25.843 -74.0422 34.2159 -1.4108 -1.59028e-015 5.96354e-016 -47.9435 -12.4787 -36.5414 179.591 5.14818 94.5435 65.2635 59.1871 -62.878 -17.4357 1.59028e-015 1.59028e-015 -28.62 34.2523 37.1176 -4.7477 4.66114 -176.384 -15.7249 0 -3.97569e-016 16.6325 10.8728 -6.23644 90 -3.04389e-016 7.95139e-016 0.00727434 -8.36687 177.569 -9.11681 0 -0 13.7854 -6.07231 2.91204 90 -3.19761e-021 9.31803e-018 
425.997 88.1912 7.27402 155.554 -85.2218 65.5902 -0.898054 -0.862871 0.500635 -1.78884 -1.73299 0.988032 -1.78884 -1.73299 0.988022 -8.30748e-012 -9.0191e-006 -5.27751e-005 -15.3633 32.5364 4.52035 -179.118 -9.53691 -84.6935 25.0552 -74.546 33.3212 -1.6102 1.59028e-015 -5.96354e-016 -48.5919 -12.4636 -36.7072 179.612 5.11073 94.3506 64.506 59.0129 -62.1576 -17.8338 -1.59028e-015 -0 -27.7523 34.3746 36.4222 -4.67206 4.64957 -176.33 -15.6758 1.59028e-015 1.98785e-016 16.6024 10.7879 -6.16678 90 4.03781e-017 -0 0.0774407 -8.36133 177.639 -9.04098 0 -1.98785e-016 13.7529 -6.1419 2.90343 90 -1.01469e-020 -6.21202e-018 
425.998 88.1886 7.24495 157.159 -85.3324 67.1705 -0.884886 -0.838354 0.50209 -1.76267 -1.68387 0.991512 -1.76267 -1.68386 0.991502 -8.30748e-012 -9.0191e-006 -5.27751e-005 -15.4601 32.6451 4.76041 -179.107 -9.49313 -84.5986 24.4435 -74.4881 32.3068 -1.68315 1.59028e-015 -6.95746e-016 -48.4648 -12.7152 -36.9023 179.623 5.03909 94.2835 64.0509 58.9666 -61.8088 -17.9449 0 -0 -27.7176 34.3729 36.4572 -4.50358 4.6274 -176.329 -15.5309 7.95139e-016 -3.97569e-016 16.4902 10.6227 -6.07433 90 3.10601e-017 -7.95139e-016 0.135451 -8.29027 177.658 -9.01847 -7.95139e-016 -5.96354e-016 13.7413 -6.22071 2.91224 90 2.94379e-020 -1.2424e-017 
425.978 88.186 7.21776 159.326 -85.4598 69.3383 -0.872849 -0.800221 0.494379 -1.73901 -1.60739 0.976832 -1.73902 -1.60739 0.976823 -8.30753e-012 -9.0191e-006 -5.27751e-005 -15.5028 32.6568 5.08632 -179.118 -9.35474 -84.59 25.9363 -74.7385 33.333 -1.42668 1.59028e-015 9.93923e-017 -47.8491 -12.7784 -36.6979 179.637 4.96282 94.1884 63.6275 58.9981 -61.4331 -18.0565 -1.59028e-015 -0 -27.7172 34.6046 36.6184 -4.35049 4.73926 -176.348 -15.4239 0 5.96354e-016 16.4086 10.5261 -6.04004 90 1.61513e-016 -7.95139e-016 0.148124 -8.16504 177.628 -9.0743 0 -5.96354e-016 13.7625 -6.28528 2.93511 90 2.96953e-021 1.2424e-017 
425.934 88.1841 7.19284 160.718 -85.5582 70.7528 -0.860719 -0.779215 0.486648 -1.71503 -1.56516 0.961848 -1.71503 -1.56516 0.961839 -8.30748e-012 -9.0191e-006 -5.27751e-005 -15.5219 32.4852 5.14668 -179.121 -9.27718 -84.5603 27.9002 -74.6609 34.9065 -1.23754 0 2.98177e-016 -47.2807 -13.2702 -36.8879 179.646 4.93767 94.1049 63.4167 59.1254 -61.228 -18.2206 -4.77083e-015 -3.18055e-015 -27.0348 34.5903 35.9894 -4.22357 4.8184 -176.407 -15.3623 -7.95139e-016 -7.95139e-016 16.3746 10.4662 -6.01376 90 5.71506e-016 -7.95139e-016 0.162562 -8.108 177.559 -9.13606 -7.95139e-016 3.97569e-016 13.7959 -6.36296 2.9786 90 2.77553e-020 1.2424e-017 
425.886 88.1792 7.17115 161.556 -85.6245 71.624 -0.852769 -0.769513 0.472231 -1.6994 -1.54548 0.933262 -1.6994 -1.54548 0.933253 -8.30746e-012 -9.0191e-006 -5.27751e-005 -15.5369 32.3811 5.3323 -179.144 -9.12046 -84.6157 30.9532 -74.8083 37.4634 -0.952847 -1.59028e-015 -2.98177e-016 -47.8476 -13.429 -37.3733 179.654 4.95805 93.9927 62.6516 59.1489 -60.5306 -18.3879 0 -1.59028e-015 -26.3129 34.9135 35.5607 -4.14745 4.8741 -176.474 -15.3585 1.59028e-015 -9.93923e-016 16.3926 10.4492 -5.99248 90 -1.55301e-016 7.95139e-016 0.140761 -8.01603 177.478 -9.25892 -1.59028e-015 -7.95139e-016 13.864 -6.34885 3.01392 90 -4.64016e-021 1.2424e-017 
425.844 88.1754 7.13735 162.596 -85.6864 72.6928 -0.842086 -0.758437 0.455761 -1.67833 -1.523 0.900623 -1.67833 -1.523 0.900614 -8.30751e-012 -9.0191e-006 -5.27751e-005 -15.5076 32.332 5.52072 -179.165 -8.99377 -84.6708 34.5276 -75.2714 40.4566 -0.75778 1.59028e-015 3.97569e-016 -48.7342 -13.1886 -37.3053 179.668 4.91297 93.8723 61.9211 59.1035 -59.6989 -18.625 0 1.59028e-015 -24.7204 35.3583 34.3268 -4.07796 4.98471 -176.523 -15.367 0 1.98785e-016 16.4422 10.4694 -6.009 90 3.94463e-016 -0 0.149125 -7.9362 177.412 -9.32142 -1.59028e-015 -1.19271e-015 13.9083 -6.3483 3.04671 90 -8.28209e-021 -0 
